<?xml version="1.0" encoding="UTF-8" standalone="no" ?>
<!DOCTYPE svg PUBLIC "-//W3C//DTD SVG 1.1//EN" "http://www.w3.org/Graphics/SVG/1.1/DTD/svg11.dtd">
<svg xmlns="http://www.w3.org/2000/svg" xmlns:xlink="http://www.w3.org/1999/xlink" version="1.1" width="431.2900000000001" height="137.44768" xml:space="preserve">
<desc>Created with Fabric.js 1.6.0-rc.1</desc>
<defs></defs>
  <g transform="translate(268.15 69.84) scale(2.81 2.24)">
   <text font-family="Dooodleista" font-size="40" font-weight="normal" style="stroke: none; stroke-width: 1; stroke-dasharray: none; stroke-linecap: butt; stroke-linejoin: miter; stroke-miterlimit: 10; fill: #006699; fill-rule: nonzero; opacity: 1;" ><tspan x="-55" y="8.98" style="stroke: none; stroke-width: 0; stroke-dasharray: none; stroke-linecap: butt; stroke-linejoin: miter; stroke-miterlimit: 4; fill: #006699; fill-rule: ; opacity: 1;">ቁ</tspan><tspan x="-32.11" y="8.98" style="stroke: none; stroke-width: 0; stroke-dasharray: none; stroke-linecap: butt; stroke-linejoin: miter; stroke-miterlimit: 4; fill: #006699; fill-rule: ; opacity: 1;">ራ</tspan><tspan x="-6.58" y="8.98" style="stroke: none; stroke-width: 0; stroke-dasharray: none; stroke-linecap: butt; stroke-linejoin: miter; stroke-miterlimit: 4; fill: #006699; fill-rule: ; opacity: 1;">ሌ</tspan><tspan x="20.14" y="8.98" style="stroke: none; stroke-width: 0; stroke-dasharray: none; stroke-linecap: butt; stroke-linejoin: miter; stroke-miterlimit: 4; fill: #006699; fill-rule: ; opacity: 1;">ው</tspan></text>
 </g>
<g style="stroke: none; stroke-width: 1; stroke-dasharray: none; stroke-linecap: butt; stroke-linejoin: miter; stroke-miterlimit: 10; fill: none; fill-rule: nonzero; opacity: 1;" transform="translate(10 21.610000000000007) scale(0.76 0.72)" >
  <path d="M 57.855 89.936 c 0.175 -0.005 0.348 -0.02 0.521 -0.02 l 0 0 C 58.202 89.916 58.029 89.931 57.855 89.936 z" style="stroke: none; stroke-width: 1; stroke-dasharray: none; stroke-linecap: butt; stroke-linejoin: miter; stroke-miterlimit: 10; fill: #90DCEB; fill-rule: nonzero; opacity: 1;" transform=" matrix(1 0 0 1 0 0) " stroke-linecap="round" />
  <polygon points="56.31,74.62 56.31,74.63 61.72,90.19 61.73,90.19 56.32,74.63 56.32,74.62 56.33,74.61 52.2,62.68 56.31,74.61 " style="stroke: none; stroke-width: 1; stroke-dasharray: none; stroke-linecap: butt; stroke-linejoin: miter; stroke-miterlimit: 10; fill: #90DCEB; fill-rule: nonzero; opacity: 1;" transform="  matrix(1 0 0 1 0 0) "/>
  <path d="M 128.287 83.235 l -2.184 0.759 L 76.91 101.092 c -0.925 -1.748 -2.088 -3.329 -3.431 -4.724 L 120.2 80.129 l 8.091 -2.813 l -21.338 -61.395 L 51.559 35.175 l -0.014 0.005 l -7.936 2.772 l 8.635 24.723 c 0 0.001 0 0.003 0 0.004 c 0 0.002 -0.039 0.004 -0.039 0.005 l 4.126 11.931 c 0.001 0.002 -0.009 0.004 -0.009 0.006 c 0.002 0.003 -0.003 0.006 -0.002 0.008 l 5.406 15.56 h -0.003 c -1.094 0 -2.213 -0.271 -3.346 -0.271 l -0.001 -0.001 c -0.174 0 -0.347 0.061 -0.521 0.066 c -0.694 0.022 -1.387 0.207 -2.076 0.207 c -0.001 0 -0.003 0 -0.003 0 L 32.311 22.633 l -3.065 -8.843 L 4.393 0.753 c -1.467 -0.77 -3.281 -0.208 -4.05 1.259 c -0.77 1.467 -0.203 3.278 1.265 4.047 l 22.749 11.922 l 25.62 73.713 c -4.584 1.998 -8.274 5.512 -10.477 10.059 c -2.44 5.041 -2.772 10.73 -0.934 16.021 c 2.931 8.429 10.89 14.092 19.807 14.092 c 2.341 0 4.658 -0.393 6.888 -1.168 c 5.29 -1.838 9.547 -5.627 11.988 -10.668 c 2.023 -4.181 2.573 -8.806 1.662 -13.281 l 51.346 -17.847 c 1.564 -0.544 2.393 -2.253 1.849 -3.818 C 131.562 83.518 129.853 82.689 128.287 83.235 z M 120.654 73.619 L 68.604 91.71 l -5.64 -16.225 l 52.051 -18.091 L 120.654 73.619 z M 51.205 41.649 l 52.051 -18.09 l 5.639 16.226 l -52.05 18.091 L 51.205 41.649 z M 60.995 69.817 l -2.181 -6.274 l 52.05 -18.091 l 2.181 6.275 L 60.995 69.817 z M 71.85 117.415 c -1.742 3.599 -4.782 6.303 -8.559 7.616 c -1.594 0.554 -3.248 0.835 -4.917 0.835 c -6.364 0 -12.047 -4.044 -14.139 -10.062 c -1.313 -3.776 -1.076 -7.838 0.666 -11.437 c 1.743 -3.599 4.783 -6.304 8.563 -7.617 c 1.592 -0.553 3.245 -0.834 4.913 -0.834 c 6.364 0 12.046 4.042 14.138 10.06 C 73.828 109.753 73.592 113.816 71.85 117.415 z" style="stroke: none; stroke-width: 1; stroke-dasharray: none; stroke-linecap: butt; stroke-linejoin: miter; stroke-miterlimit: 10; fill: #586065; fill-rule: nonzero; opacity: 1;" transform=" matrix(1 0 0 1 0 0) " stroke-linecap="round" />
  <rect x="52.5" y="32.13" rx="0" ry="0" width="55.1" height="17.18" style="stroke: none; stroke-width: 1; stroke-dasharray: none; stroke-linecap: butt; stroke-linejoin: miter; stroke-miterlimit: 10; fill: #FFC63F; fill-rule: nonzero; opacity: 1;" transform=" matrix(0.9446 -0.3283 0.3283 0.9446 -8.9305 28.5364) "/>
  <rect x="58.38" y="54.31" rx="0" ry="0" width="55.1" height="6.64" style="stroke: none; stroke-width: 1; stroke-dasharray: none; stroke-linecap: butt; stroke-linejoin: miter; stroke-miterlimit: 10; fill: #FFC0B3; fill-rule: nonzero; opacity: 1;" transform=" matrix(0.9446 -0.3283 0.3283 0.9446 -14.1588 31.4063) "/>
  <rect x="64.26" y="65.96" rx="0" ry="0" width="55.1" height="17.18" style="stroke: none; stroke-width: 1; stroke-dasharray: none; stroke-linecap: butt; stroke-linejoin: miter; stroke-miterlimit: 10; fill: #FFC63F; fill-rule: nonzero; opacity: 1;" transform=" matrix(-0.9446 0.3283 -0.3283 -0.9446 203.0065 114.8294) "/>
  <path d="M 58.377 95.916 c -1.668 0 -3.321 0.281 -4.913 0.834 c -3.779 1.313 -6.819 4.019 -8.563 7.617 c -1.742 3.599 -1.979 7.66 -0.666 11.437 c 2.092 6.018 7.774 10.062 14.139 10.062 c 1.669 0 3.323 -0.281 4.917 -0.835 c 3.776 -1.313 6.816 -4.017 8.559 -7.616 c 1.742 -3.599 1.979 -7.662 0.665 -11.438 C 70.423 99.959 64.741 95.916 58.377 95.916 z M 66.503 114.826 c -1.052 2.171 -2.885 3.802 -5.163 4.593 c -0.958 0.333 -1.956 0.502 -2.966 0.502 c -3.84 0 -7.267 -2.438 -8.527 -6.068 c -0.791 -2.277 -0.648 -4.728 0.402 -6.898 c 1.051 -2.171 2.885 -3.803 5.163 -4.594 c 0.958 -0.333 1.955 -0.502 2.964 -0.502 c 3.84 0 7.268 2.438 8.529 6.066 C 67.697 110.205 67.554 112.655 66.503 114.826 z" style="stroke: none; stroke-width: 1; stroke-dasharray: none; stroke-linecap: butt; stroke-linejoin: miter; stroke-miterlimit: 10; fill: #90DCEB; fill-rule: nonzero; opacity: 1;" transform=" matrix(1 0 0 1 0 0) " stroke-linecap="round" />
  <path d="M 58.376 107.86 c -0.336 0 -0.671 0.057 -0.994 0.169 c -0.765 0.266 -1.38 0.813 -1.732 1.541 c -0.353 0.729 -0.4 1.551 -0.135 2.315 c 0.534 1.537 2.292 2.411 3.856 1.867 c 0.766 -0.266 1.38 -0.813 1.732 -1.541 c 0.353 -0.728 0.4 -1.551 0.135 -2.315 C 60.814 108.678 59.664 107.86 58.376 107.86 z" style="stroke: none; stroke-width: 1; stroke-dasharray: none; stroke-linecap: butt; stroke-linejoin: miter; stroke-miterlimit: 10; fill: #FFFFFF; fill-rule: nonzero; opacity: 1;" transform=" matrix(1 0 0 1 0 0) " stroke-linecap="round" />
  <path d="M 58.376 101.86 c -1.009 0 -2.006 0.169 -2.964 0.502 c -2.278 0.792 -4.112 2.423 -5.163 4.594 c -1.051 2.17 -1.193 4.621 -0.402 6.898 c 1.261 3.63 4.688 6.068 8.527 6.068 c 1.01 0 2.008 -0.169 2.966 -0.502 c 2.278 -0.791 4.111 -2.422 5.163 -4.593 c 1.051 -2.171 1.194 -4.622 0.402 -6.901 C 65.643 104.298 62.216 101.86 58.376 101.86 z M 61.102 112.211 c -0.352 0.728 -0.967 1.275 -1.732 1.541 c -1.564 0.544 -3.321 -0.33 -3.856 -1.867 c -0.266 -0.765 -0.218 -1.587 0.135 -2.315 c 0.353 -0.728 0.968 -1.275 1.732 -1.541 c 0.323 -0.112 0.658 -0.169 0.994 -0.169 c 1.288 0 2.439 0.818 2.861 2.036 C 61.503 110.66 61.455 111.483 61.102 112.211 z" style="stroke: none; stroke-width: 1; stroke-dasharray: none; stroke-linecap: butt; stroke-linejoin: miter; stroke-miterlimit: 10; fill: #586065; fill-rule: nonzero; opacity: 1;" transform=" matrix(1 0 0 1 0 0) " stroke-linecap="round" />
</g>
  <g transform="translate(25.5 78.33)">
   <text font-family="ADAMCG PRO" font-size="40" font-weight="normal" style="stroke: none; stroke-width: 1; stroke-dasharray: none; stroke-linecap: butt; stroke-linejoin: miter; stroke-miterlimit: 10; fill: #000000; fill-rule: nonzero; opacity: 1;" ><tspan x="0" y="8.98" fill="#000000"></tspan></text>
 </g>
</svg>